<mxfile host="65bd71144e">
    <diagram id="G4b-fPKUs8wzCyBjC9kl" name="Page-1">
        <mxGraphModel dx="960" dy="877" grid="1" gridSize="10" guides="1" tooltips="1" connect="1" arrows="1" fold="1" page="1" pageScale="1" pageWidth="1654" pageHeight="2336" math="0" shadow="0">
            <root>
                <mxCell id="0"/>
                <mxCell id="1" parent="0"/>
                <mxCell id="8" style="edgeStyle=orthogonalEdgeStyle;html=1;exitX=1;exitY=0.5;exitDx=0;exitDy=0;entryX=0;entryY=0.5;entryDx=0;entryDy=0;fontFamily=Helvetica;fontSize=11;startArrow=classic;startFill=1;endArrow=none;endFill=0;" edge="1" parent="1" source="2" target="3">
                    <mxGeometry relative="1" as="geometry"/>
                </mxCell>
                <mxCell id="9" value="DNS&lt;br&gt;Zone Transfer" style="edgeLabel;html=1;align=center;verticalAlign=middle;resizable=0;points=[];fontSize=11;fontFamily=Helvetica;" vertex="1" connectable="0" parent="8">
                    <mxGeometry x="-0.035" y="4" relative="1" as="geometry">
                        <mxPoint x="2" y="-16" as="offset"/>
                    </mxGeometry>
                </mxCell>
                <mxCell id="2" value="Secondary NS" style="rounded=0;whiteSpace=wrap;html=1;" vertex="1" parent="1">
                    <mxGeometry x="220" y="230" width="120" height="60" as="geometry"/>
                </mxCell>
                <mxCell id="5" value="" style="edgeStyle=none;html=1;" edge="1" parent="1" source="3" target="4">
                    <mxGeometry relative="1" as="geometry"/>
                </mxCell>
                <mxCell id="6" value="&lt;font style=&quot;font-size: 11px&quot;&gt;HTTP SOAP&lt;br&gt;&lt;span style=&quot;color: rgb(51 , 51 , 51) ; text-align: left&quot;&gt;TR-064&lt;/span&gt;&lt;span style=&quot;color: rgb(51 , 51 , 51) ; text-align: left&quot;&gt;&lt;br&gt;&lt;/span&gt;&lt;/font&gt;" style="edgeLabel;html=1;align=center;verticalAlign=middle;resizable=0;points=[];" vertex="1" connectable="0" parent="5">
                    <mxGeometry x="-0.1571" y="-2" relative="1" as="geometry">
                        <mxPoint y="-22" as="offset"/>
                    </mxGeometry>
                </mxCell>
                <mxCell id="3" value="Fritz-DNS&lt;br&gt;(Hidden Master NS)" style="rounded=0;whiteSpace=wrap;html=1;" vertex="1" parent="1">
                    <mxGeometry x="460" y="230" width="120" height="60" as="geometry"/>
                </mxCell>
                <mxCell id="4" value="Fritz!Box" style="whiteSpace=wrap;html=1;rounded=0;" vertex="1" parent="1">
                    <mxGeometry x="800" y="230" width="120" height="60" as="geometry"/>
                </mxCell>
                <mxCell id="10" style="edgeStyle=orthogonalEdgeStyle;html=1;exitX=1;exitY=0.5;exitDx=0;exitDy=0;fontFamily=Helvetica;fontSize=11;dashed=1;" edge="1" parent="1" source="7" target="3">
                    <mxGeometry relative="1" as="geometry"/>
                </mxCell>
                <mxCell id="12" value="DNS Lookup" style="edgeLabel;html=1;align=center;verticalAlign=middle;resizable=0;points=[];fontSize=11;fontFamily=Helvetica;" vertex="1" connectable="0" parent="10">
                    <mxGeometry x="-0.5448" y="1" relative="1" as="geometry">
                        <mxPoint x="4" y="-19" as="offset"/>
                    </mxGeometry>
                </mxCell>
                <mxCell id="11" style="edgeStyle=orthogonalEdgeStyle;html=1;exitX=0.5;exitY=0;exitDx=0;exitDy=0;fontFamily=Helvetica;fontSize=11;" edge="1" parent="1" source="7" target="2">
                    <mxGeometry relative="1" as="geometry"/>
                </mxCell>
                <mxCell id="7" value="Clients" style="rounded=0;whiteSpace=wrap;html=1;" vertex="1" parent="1">
                    <mxGeometry x="220" y="370" width="120" height="60" as="geometry"/>
                </mxCell>
                <mxCell id="13" value="&lt;span style=&quot;font-family: inconsolata, monospace; text-align: left; background-color: rgb(255, 255, 255);&quot;&gt;X_AVM-DE_GetHostListPath&lt;/span&gt;" style="text;html=1;align=center;verticalAlign=middle;resizable=0;points=[];autosize=1;strokeColor=none;fillColor=none;fontSize=11;fontFamily=Helvetica;fontColor=#CC0066;" vertex="1" parent="1">
                    <mxGeometry x="600" y="270" width="170" height="20" as="geometry"/>
                </mxCell>
                <mxCell id="14" value="AXFR" style="text;html=1;align=center;verticalAlign=middle;resizable=0;points=[];autosize=1;strokeColor=none;fillColor=none;fontSize=11;fontFamily=Helvetica;fontColor=#CC0066;" vertex="1" parent="1">
                    <mxGeometry x="380" y="270" width="40" height="20" as="geometry"/>
                </mxCell>
                <mxCell id="15" value="&lt;span style=&quot;background-color: rgb(255 , 255 , 255)&quot;&gt;A / AAAA&lt;/span&gt;" style="text;html=1;align=center;verticalAlign=middle;resizable=0;points=[];autosize=1;strokeColor=none;fillColor=none;fontSize=11;fontFamily=Helvetica;fontColor=#CC0066;" vertex="1" parent="1">
                    <mxGeometry x="380" y="410" width="60" height="20" as="geometry"/>
                </mxCell>
                <mxCell id="16" value="Clients" style="rounded=0;whiteSpace=wrap;html=1;" vertex="1" parent="1">
                    <mxGeometry x="226" y="376" width="120" height="60" as="geometry"/>
                </mxCell>
            </root>
        </mxGraphModel>
    </diagram>
</mxfile>
